<?xml version="1.0" ?>

<!-- Uploaded to: SVG Repo, www.svgrepo.com, Generator: SVG Repo Mixer Tools -->
<svg width="800px" height="800px" viewBox="0 0 281.25 281.25" id="svg2" version="1.1" xml:space="preserve" xmlns="http://www.w3.org/2000/svg" xmlns:cc="http://creativecommons.org/ns#" xmlns:dc="http://purl.org/dc/elements/1.1/" xmlns:rdf="http://www.w3.org/1999/02/22-rdf-syntax-ns#" xmlns:svg="http://www.w3.org/2000/svg">

<defs id="defs4"/>

<g id="layer1" transform="translate(6111.1064,-3994.3706)">

<g id="g27059" transform="translate(-2264.9774,-364.80313)">

<path d="m -3705.5058,4391.8998 c -6.5743,0 -13.0417,2.1286 -18.3307,6.0333 -3.8345,2.8309 -6.954,6.5325 -9.1205,10.7465 -3.613,-1.3604 -7.4835,-2.0054 -11.3635,-1.8695 v 0 c -5.6931,0.2001 -11.248,2.0751 -15.8973,5.3668 -6.6766,4.7272 -11.0596,12.1572 -12.1142,20.1801 -11.7442,0.7199 -23.087,5.8086 -31.3696,14.2309 -9.3683,9.526 -14.4177,22.8938 -13.6908,36.2348 0.7267,13.3408 7.1994,26.0781 17.547,34.53 10.3477,8.4519 24.1213,12.2512 37.3388,10.2997 13.1878,-1.947 25.1453,-9.604 32.6312,-20.5225 5.5998,5.6943 13.1389,9.3781 21.1725,10.1349 6.2888,0.5925 12.674,-0.5876 18.3344,-3.3911 3.4447,-1.7061 6.5703,-3.9927 9.245,-6.7273 7.4867,10.9096 19.4393,18.56 32.6202,20.506 13.2175,1.9515 26.9912,-1.8478 37.3389,-10.2997 10.3476,-8.4519 16.822,-21.1892 17.5488,-34.53 0.7269,-13.341 -4.3243,-26.7088 -13.6926,-36.2348 -8.2827,-8.4223 -19.6255,-13.511 -31.3696,-14.2309 -1.0542,-8.0229 -5.4376,-15.4529 -12.1143,-20.1801 -4.6497,-3.2921 -10.2034,-5.1671 -15.8972,-5.3668 -3.8813,-0.1362 -7.7519,0.5103 -11.3654,1.8713 -2.1659,-4.2145 -5.2837,-7.9171 -9.1186,-10.7483 -5.289,-3.9047 -11.7563,-6.0333 -18.3307,-6.0333 z m 0,9.375 c 4.5227,0 9.1238,1.5161 12.7624,4.2023 3.6385,2.6862 6.4392,6.6367 7.771,10.9588 a 4.6875,4.6875 0 0 0 0.09,0.185 4.6875,4.6875 0 0 0 0.3845,0.8697 4.6875,4.6875 0 0 0 0.108,0.1337 4.6875,4.6875 0 0 0 0.2966,0.3699 4.6875,4.6875 0 0 0 0.6208,0.6408 4.6875,4.6875 0 0 0 0.4083,0.2985 4.6875,4.6875 0 0 0 0.7837,0.4138 4.6875,4.6875 0 0 0 0.4523,0.174 4.6875,4.6875 0 0 0 0.9631,0.1684 4.6875,4.6875 0 0 0 0.3772,0.042 4.6875,4.6875 0 0 0 1.3458,-0.1922 4.6875,4.6875 0 0 0 0.029,0 4.6875,4.6875 0 0 0 1.0089,-0.4541 4.6875,4.6875 0 0 0 0.046,-0.02 c 3.2752,-1.9897 7.2095,-3.0165 11.0394,-2.8821 3.8298,0.1343 7.681,1.4349 10.8087,3.6493 5.2759,3.7355 8.627,10.5174 8.3918,16.9775 a 4.6875,4.6875 0 0 0 0.022,0.2252 4.6875,4.6875 0 0 0 -0.02,0.1227 4.6875,4.6875 0 0 0 0.051,0.2161 4.6875,4.6875 0 0 0 0.3241,1.355 4.6875,4.6875 0 0 0 0.1062,0.2856 4.6875,4.6875 0 0 0 0.943,1.3001 4.6875,4.6875 0 0 0 0.2655,0.2215 4.6875,4.6875 0 0 0 1.1773,0.7233 4.6875,4.6875 0 0 0 0.2857,0.1318 4.6875,4.6875 0 0 0 1.3604,0.2728 4.6875,4.6875 0 0 0 0.2179,-0.02 4.6875,4.6875 0 0 0 0.1282,0.02 c 10.6153,-0.4007 21.5152,3.927 28.9636,11.5009 7.4484,7.5738 11.5936,18.5416 11.0157,29.1486 -0.5778,10.607 -5.8903,21.0627 -14.1175,27.7825 -8.2273,6.7199 -19.5332,9.8372 -30.0421,8.2856 -12.3385,-1.8216 -23.7952,-10.2797 -29.1723,-21.5332 a 4.6875,4.6875 0 0 0 -0.026,-0.035 4.6875,4.6875 0 0 0 -1.0528,-1.4044 4.6875,4.6875 0 0 0 -0.05,-0.042 4.6875,4.6875 0 0 0 -0.6244,-0.4742 4.6875,4.6875 0 0 0 -0.5914,-0.249 4.6875,4.6875 0 0 0 -0.5255,-0.2234 4.6875,4.6875 0 0 0 -1.3825,-0.1978 4.6875,4.6875 0 0 0 -0.2655,-0.024 4.6875,4.6875 0 0 0 -1.6131,0.4102 4.6875,4.6875 0 0 0 -0.1209,0.031 4.6875,4.6875 0 0 0 -0.2929,0.2197 4.6875,4.6875 0 0 0 -0.9558,0.7142 4.6875,4.6875 0 0 0 -0.3809,0.4394 4.6875,4.6875 0 0 0 -0.3296,0.379 c -2.4023,3.8561 -5.9391,7.0674 -10.0104,9.0839 -4.071,2.0163 -8.7722,2.8853 -13.2953,2.4591 -7.4498,-0.7018 -14.6993,-5.1814 -18.6602,-11.5301 0,0 0,-0.01 -0.01,-0.013 a 4.6875,4.6875 0 0 0 -0.015,-0.018 4.6875,4.6875 0 0 0 -0.7288,-0.8844 4.6875,4.6875 0 0 0 -0.055,-0.057 4.6875,4.6875 0 0 0 -0.9027,-0.6464 4.6875,4.6875 0 0 0 -0.1245,-0.071 4.6875,4.6875 0 0 0 -0.1319,-0.075 4.6875,4.6875 0 0 0 -0.2142,-0.055 4.6875,4.6875 0 0 0 -0.7471,-0.2802 4.6875,4.6875 0 0 0 -0.5713,-0.055 4.6875,4.6875 0 0 0 -0.3955,-0.04 4.6875,4.6875 0 0 0 -1.571,0.2271 4.6875,4.6875 0 0 0 -0.271,0.1226 4.6875,4.6875 0 0 0 -0.7306,0.3333 4.6875,4.6875 0 0 0 -0.3735,0.3223 4.6875,4.6875 0 0 0 -0.4468,0.3882 4.6875,4.6875 0 0 0 -0.7031,0.9393 4.6875,4.6875 0 0 0 -0.2289,0.3058 c -5.3773,11.2535 -16.8339,19.7116 -29.1724,21.5332 -10.5089,1.5516 -21.8131,-1.5657 -30.0403,-8.2856 -8.2272,-6.7198 -13.5396,-17.1755 -14.1174,-27.7825 -0.5779,-10.607 3.5671,-21.5748 11.0156,-29.1486 7.4484,-7.5739 18.3465,-11.9016 28.9618,-11.5009 a 4.6875,4.6875 0 0 0 0.13,-0.02 4.6875,4.6875 0 0 0 0.2179,0.02 4.6875,4.6875 0 0 0 1.4392,-0.2856 4.6875,4.6875 0 0 0 0.039,-0.016 4.6875,4.6875 0 0 0 1.5198,-0.9338 4.6875,4.6875 0 0 0 0.035,-0.035 4.6875,4.6875 0 0 0 1.0437,-1.4411 4.6875,4.6875 0 0 0 0.018,-0.042 4.6875,4.6875 0 0 0 0.4156,-1.734 4.6875,4.6875 0 0 0 0,-0.018 4.6875,4.6875 0 0 0 0,-0.093 4.6875,4.6875 0 0 0 0,-0.2545 c -0.2352,-6.4601 3.1176,-13.242 8.3935,-16.9775 3.1276,-2.2144 6.979,-3.515 10.8087,-3.6493 3.8298,-0.1344 7.7625,0.8924 11.0376,2.8821 a 4.6875,4.6875 0 0 0 0.8753,0.3863 4.6875,4.6875 0 0 0 0.1794,0.088 4.6875,4.6875 0 0 0 0.029,0 4.6875,4.6875 0 0 0 1.3459,0.1922 4.6875,4.6875 0 0 0 0.3662,-0.04 4.6875,4.6875 0 0 0 0.9851,-0.1721 4.6875,4.6875 0 0 0 0.4303,-0.1666 4.6875,4.6875 0 0 0 0.802,-0.423 4.6875,4.6875 0 0 0 0.3955,-0.2893 4.6875,4.6875 0 0 0 0.6427,-0.6647 4.6875,4.6875 0 0 0 0.2728,-0.3405 4.6875,4.6875 0 0 0 0.1172,-0.1447 4.6875,4.6875 0 0 0 0.4596,-1.029 4.6875,4.6875 0 0 0 0.013,-0.026 c 1.3318,-4.3221 4.1343,-8.2726 7.7728,-10.9588 3.6385,-2.6862 8.2399,-4.2023 12.7625,-4.2023 z" id="path8036" style="color:#000000;fill:#2aff2a;fill-opacity:1;stroke-linecap:round;stroke-linejoin:round;-inkscape-stroke:none"/>

<path d="m -3752.3735,4524.9461 c -3.2541,1.2673 -6.649,2.1916 -10.1349,2.7063 -0.5984,0.088 -1.1996,0.1511 -1.7999,0.216 10.0453,6.5379 18.5467,15.5029 24.516,25.893 8.3512,14.536 11.7151,31.9921 9.3658,48.5907 a 4.6875,4.6875 0 0 0 0.013,0.216 4.6875,4.6875 0 0 0 -0.059,0.4413 4.6875,4.6875 0 0 0 0.1446,1.1023 4.6875,4.6875 0 0 0 0.011,0.081 4.6875,4.6875 0 0 0 0.7031,1.4593 4.6875,4.6875 0 0 0 0.2417,0.315 4.6875,4.6875 0 0 0 1.1591,1.0382 4.6875,4.6875 0 0 0 0.06,0.046 4.6875,4.6875 0 0 0 1.5271,0.5365 4.6875,4.6875 0 0 0 0.1831,0.064 4.6875,4.6875 0 0 0 0.2161,-0.013 4.6875,4.6875 0 0 0 0.4413,0.059 h 40.556 a 4.6875,4.6875 0 0 0 0.4413,-0.059 4.6875,4.6875 0 0 0 0.2179,0.013 4.6875,4.6875 0 0 0 0.5108,-0.108 4.6875,4.6875 0 0 0 0.061,-0.013 4.6875,4.6875 0 0 0 1.0748,-0.445 4.6875,4.6875 0 0 0 0.051,-0.027 4.6875,4.6875 0 0 0 0.9429,-0.7233 4.6875,4.6875 0 0 0 0.018,-0.016 4.6875,4.6875 0 0 0 0.7251,-0.943 4.6875,4.6875 0 0 0 0.02,-0.033 4.6875,4.6875 0 0 0 0.4541,-1.095 4.6875,4.6875 0 0 0 0.013,-0.035 4.6875,4.6875 0 0 0 0.1557,-1.192 4.6875,4.6875 0 0 0 0,-0.011 4.6875,4.6875 0 0 0 -0.01,-0.1794 4.6875,4.6875 0 0 0 -0.026,-0.3571 4.6875,4.6875 0 0 0 -0.01,-0.1135 c -2.3493,-16.5986 1.0148,-34.0547 9.3659,-48.5907 5.9693,-10.3901 14.469,-19.3551 24.5141,-25.893 -0.6007,-0.065 -1.201,-0.1276 -1.7999,-0.216 -3.4853,-0.5146 -6.8812,-1.4375 -10.1349,-2.7045 -8.3201,6.6713 -15.388,14.8854 -20.7074,24.1443 -8.5245,14.8377 -12.3899,32.1898 -11.0852,49.2297 h -30.1483 c 1.305,-17.0399 -2.5588,-34.392 -11.0834,-49.2297 -5.3197,-9.2596 -12.3882,-17.4745 -20.7092,-24.1461 z" id="path8022" style="color:#000000;fill:#333333;fill-opacity:1;stroke-linecap:round;stroke-linejoin:round;-inkscape-stroke:none"/>

</g>

</g>

</svg>